<svg xmlns="http://www.w3.org/2000/svg" viewBox="0 0 1904 513" width="1904" height="513" role="img" aria-label="BC Financial Search logo">
  <title>BC Financial Search</title>
  <g fill="#0F2B4F" fill-rule="evenodd"><path d="M 187.00 451.01 L 31.00 451.75 L 27.44 450.00 L 27.25 64.00 L 29.00 60.44 L 180.00 60.27 L 199.00 62.27 L 218.00 66.43 L 238.00 74.42 L 262.00 91.17 L 277.58 110.00 L 288.57 133.00 L 292.73 155.00 L 292.75 175.00 L 287.56 199.00 L 281.58 211.00 L 271.83 225.00 L 260.80 236.00 L 243.10 248.00 L 265.00 259.42 L 280.00 271.17 L 288.58 281.00 L 298.57 298.00 L 303.57 312.00 L 306.73 330.00 L 306.73 350.00 L 302.57 373.00 L 289.00 400.80 L 271.85 420.00 L 262.00 427.58 L 234.00 442.57 L 212.00 448.57 L 199.00 450.73 L 187.00 451.01 Z M 183.99 414.00 L 202.00 412.23 L 227.00 403.97 L 238.00 396.99 L 247.00 388.99 L 257.00 375.99 L 265.23 355.00 L 266.23 332.00 L 265.00 324.02 L 258.99 309.00 L 250.99 297.00 L 242.00 288.01 L 231.00 280.99 L 222.98 277.00 L 199.00 270.77 L 189.00 269.75 L 67.39 270.00 L 67.03 413.00 L 70.00 414.25 L 183.99 414.00 Z M 185.99 232.00 L 202.98 229.00 L 214.00 224.97 L 226.00 217.99 L 237.99 207.00 L 243.97 198.00 L 247.99 189.00 L 250.23 182.00 L 251.95 166.00 L 250.23 149.00 L 242.00 130.01 L 235.15 121.00 L 226.00 113.01 L 216.00 107.03 L 206.98 103.00 L 187.00 98.77 L 178.00 97.75 L 68.00 98.03 L 66.75 101.00 L 67.00 231.61 L 185.99 232.00 Z M 902.00 250.01 L 850.50 250.00 L 849.25 246.00 L 849.27 219.00 L 850.25 215.00 L 849.25 161.00 L 851.00 156.51 L 899.00 156.43 L 910.00 160.42 L 915.00 164.17 L 918.58 169.00 L 921.57 178.00 L 921.57 185.00 L 919.56 192.00 L 912.80 201.00 L 919.00 206.21 L 924.57 215.00 L 925.73 219.00 L 925.57 231.00 L 922.58 238.00 L 917.80 244.00 L 912.00 247.56 L 902.00 250.01 Z M 710.00 484.56 L 704.00 484.56 L 702.25 481.00 L 702.25 31.00 L 703.00 28.22 L 706.00 27.25 L 710.00 27.44 L 711.75 31.00 L 711.75 481.00 L 710.00 484.56 Z M 1528.00 250.56 L 1516.00 249.79 L 1466.00 184.37 L 1464.76 186.00 L 1464.73 249.00 L 1463.00 250.73 L 1450.52 250.00 L 1450.23 212.00 L 1449.29 209.00 L 1451.00 156.52 L 1462.00 156.27 L 1464.83 158.00 L 1513.00 220.90 L 1514.25 219.00 L 1514.43 159.00 L 1517.00 156.27 L 1529.00 157.22 L 1529.75 247.00 L 1528.00 250.56 Z M 1791.00 250.48 L 1777.00 249.83 L 1768.01 229.00 L 1765.00 226.75 L 1724.00 226.78 L 1721.01 231.00 L 1712.78 250.00 L 1698.52 250.00 L 1700.43 242.00 L 1725.43 184.00 L 1736.44 159.00 L 1739.00 156.44 L 1751.00 156.44 L 1753.56 159.00 L 1791.57 246.00 L 1791.00 250.48 Z M 1428.00 250.48 L 1414.22 250.00 L 1404.97 228.00 L 1402.00 226.75 L 1361.06 227.00 L 1359.03 229.00 L 1350.00 250.49 L 1335.52 250.00 L 1349.43 215.00 L 1373.43 160.00 L 1376.00 156.44 L 1389.50 157.00 L 1427.57 243.00 L 1428.73 247.00 L 1428.00 250.48 Z M 1314.00 250.48 L 1303.00 250.56 L 1299.17 247.00 L 1252.00 185.09 L 1250.75 187.00 L 1250.73 249.00 L 1249.00 250.73 L 1236.52 250.00 L 1237.00 156.52 L 1248.00 156.44 L 1251.83 160.00 L 1298.00 219.91 L 1299.21 219.00 L 1300.23 212.00 L 1299.25 187.00 L 1300.25 170.00 L 1299.25 164.00 L 1300.52 157.00 L 1314.48 157.00 L 1314.00 250.48 Z M 1000.00 252.01 L 987.00 252.73 L 981.00 251.57 L 963.20 243.00 L 954.17 234.00 L 950.44 228.00 L 945.27 212.00 L 945.43 195.00 L 948.43 185.00 L 954.00 174.20 L 961.00 166.17 L 971.00 159.42 L 978.00 156.43 L 989.00 154.27 L 998.00 154.27 L 1012.00 157.43 L 1025.80 166.00 L 1029.54 171.00 L 1028.83 173.00 L 1020.00 180.71 L 1006.99 171.00 L 1000.00 168.77 L 986.01 169.00 L 974.00 174.85 L 966.01 183.00 L 963.00 189.01 L 959.77 203.00 L 961.00 212.99 L 967.01 226.00 L 977.00 234.99 L 992.00 239.23 L 1001.00 238.23 L 1011.00 233.99 L 1020.00 226.29 L 1029.56 234.00 L 1027.85 238.00 L 1016.00 247.58 L 1005.00 251.57 L 1000.00 252.01 Z M 1609.00 252.01 L 1596.00 252.73 L 1589.00 251.57 L 1579.00 247.58 L 1568.20 240.00 L 1557.43 225.00 L 1553.27 207.00 L 1555.43 189.00 L 1559.42 179.00 L 1564.00 172.20 L 1576.00 161.42 L 1584.00 157.43 L 1597.00 154.27 L 1606.00 154.27 L 1618.00 156.43 L 1632.80 165.00 L 1637.54 171.00 L 1633.79 177.00 L 1628.00 180.54 L 1615.99 171.00 L 1609.00 168.77 L 1595.01 169.00 L 1582.00 175.01 L 1572.00 187.06 L 1568.77 199.00 L 1570.00 214.99 L 1575.01 225.00 L 1583.00 232.99 L 1593.01 238.00 L 1603.00 239.23 L 1614.00 236.99 L 1629.00 226.29 L 1637.56 234.00 L 1635.85 238.00 L 1624.00 247.58 L 1614.00 251.57 L 1609.00 252.01 Z M 1114.00 250.56 L 1102.00 250.56 L 1100.27 248.00 L 1100.44 158.00 L 1103.00 156.27 L 1164.00 156.51 L 1165.55 160.00 L 1164.56 168.00 L 1163.00 169.56 L 1116.00 170.39 L 1116.39 198.00 L 1158.00 198.44 L 1159.73 201.00 L 1159.73 210.00 L 1157.00 212.73 L 1116.39 213.00 L 1115.73 248.00 L 1114.00 250.56 Z M 1874.00 250.48 L 1812.52 250.00 L 1812.27 159.00 L 1814.00 156.44 L 1825.00 156.27 L 1827.56 158.00 L 1828.00 236.61 L 1873.00 237.44 L 1874.73 240.00 L 1874.00 250.48 Z M 1675.00 250.56 L 1663.00 250.56 L 1661.27 248.00 L 1661.27 159.00 L 1664.00 156.27 L 1675.00 156.44 L 1676.73 159.00 L 1676.73 248.00 L 1675.00 250.56 Z M 1204.00 250.48 L 1192.00 250.73 L 1190.27 249.00 L 1190.25 159.00 L 1190.52 157.00 L 1192.00 156.27 L 1203.00 156.44 L 1204.73 159.00 L 1204.00 250.48 Z M 889.99 238.00 L 900.98 237.00 L 908.99 232.00 L 911.23 223.00 L 908.15 215.00 L 898.00 209.77 L 865.39 210.00 L 865.00 236.61 L 878.00 238.23 L 889.99 238.00 Z M 893.99 196.00 L 902.00 192.99 L 905.00 188.99 L 906.23 180.00 L 904.97 176.00 L 902.00 172.85 L 894.00 169.77 L 865.00 170.39 L 865.39 196.00 L 893.99 196.00 Z M 1760.55 214.00 L 1751.99 191.00 L 1746.00 177.38 L 1744.44 177.00 L 1733.00 202.06 L 1729.45 214.00 L 1760.55 214.00 Z M 1397.55 214.00 L 1396.00 207.01 L 1384.00 178.07 L 1382.00 177.07 L 1366.45 214.00 L 1397.55 214.00 Z"/></g>
  <g fill="#BE9453" fill-rule="evenodd"><path d="M 557.00 161.56 L 553.17 160.00 L 538.15 141.00 L 529.00 131.85 L 511.00 118.01 L 499.99 111.00 L 483.00 103.01 L 457.00 94.77 L 442.00 92.77 L 413.00 92.77 L 398.01 95.00 L 371.02 103.00 L 356.01 110.00 L 333.00 125.01 L 312.00 143.71 L 309.43 141.00 L 305.00 124.02 L 298.43 111.00 L 298.43 107.00 L 309.20 97.00 L 333.00 80.42 L 351.00 71.43 L 371.00 63.43 L 394.00 57.43 L 410.00 55.27 L 445.00 55.27 L 462.00 57.43 L 497.00 67.43 L 523.00 80.42 L 542.80 94.00 L 563.83 113.00 L 579.00 131.20 L 582.71 138.00 L 580.00 141.83 L 557.00 161.56 Z M 440.00 453.01 L 418.00 453.73 L 387.00 449.57 L 358.00 440.57 L 330.00 426.58 L 303.44 407.00 L 303.43 404.00 L 312.97 388.00 L 317.42 375.00 L 320.00 373.46 L 346.00 393.99 L 371.01 407.00 L 382.01 411.00 L 404.00 416.23 L 430.00 418.25 L 452.00 416.23 L 465.99 413.00 L 483.99 407.00 L 496.99 401.00 L 516.00 388.99 L 527.00 380.15 L 555.00 350.44 L 558.80 351.00 L 582.56 372.00 L 581.00 376.80 L 556.00 403.83 L 532.00 422.58 L 519.00 430.58 L 496.00 441.57 L 478.00 447.57 L 464.00 450.73 L 440.00 453.01 Z M 1349.00 398.48 L 1335.20 398.00 L 1315.99 370.00 L 1313.00 368.75 L 1293.39 369.00 L 1292.56 397.00 L 1290.00 398.73 L 1279.00 397.78 L 1278.25 313.00 L 1279.22 310.00 L 1322.00 309.43 L 1327.00 310.43 L 1337.00 315.42 L 1343.00 321.20 L 1347.57 331.00 L 1347.57 346.00 L 1342.83 356.00 L 1337.80 361.00 L 1329.80 366.00 L 1348.58 394.00 L 1349.00 398.48 Z M 1207.00 398.48 L 1194.00 397.83 L 1185.01 378.00 L 1182.00 375.75 L 1143.07 376.00 L 1132.78 398.00 L 1119.52 398.00 L 1119.43 395.00 L 1126.44 378.00 L 1157.00 309.51 L 1168.00 309.27 L 1171.56 312.00 L 1207.57 395.00 L 1207.00 398.48 Z M 1051.00 398.56 L 992.00 398.73 L 989.44 397.00 L 989.27 312.00 L 991.00 309.44 L 1049.00 309.27 L 1051.56 311.00 L 1051.73 319.00 L 1050.00 321.56 L 1005.00 321.78 L 1003.75 324.00 L 1003.77 345.00 L 1005.00 346.97 L 1044.00 347.27 L 1045.48 348.00 L 1045.75 350.00 L 1045.56 358.00 L 1044.00 359.56 L 1004.39 360.00 L 1004.00 385.61 L 1051.00 386.44 L 1052.56 388.00 L 1052.75 391.00 L 1052.56 397.00 L 1051.00 398.56 Z M 1642.00 398.56 L 1632.00 398.73 L 1629.44 397.00 L 1629.22 361.00 L 1627.00 359.75 L 1587.37 360.00 L 1585.77 363.00 L 1585.56 397.00 L 1583.00 398.73 L 1573.00 397.78 L 1573.00 309.52 L 1585.48 310.00 L 1585.77 343.00 L 1587.00 345.73 L 1613.00 347.25 L 1627.00 347.23 L 1628.97 346.00 L 1629.44 311.00 L 1632.00 309.27 L 1642.50 310.00 L 1643.75 314.00 L 1643.75 395.00 L 1642.00 398.56 Z M 886.00 400.01 L 880.00 400.73 L 873.00 399.73 L 862.00 396.57 L 851.20 390.00 L 848.27 386.00 L 851.42 378.00 L 854.00 376.29 L 871.00 385.99 L 881.00 388.23 L 890.00 386.99 L 896.00 383.99 L 900.00 378.98 L 900.00 371.02 L 895.00 365.01 L 884.99 361.00 L 867.00 356.57 L 861.00 353.58 L 855.17 349.00 L 851.43 343.00 L 850.27 329.00 L 854.42 320.00 L 861.00 313.42 L 874.00 308.27 L 891.00 308.27 L 896.00 309.43 L 908.00 315.42 L 910.73 319.00 L 909.56 324.00 L 906.00 328.56 L 903.00 328.56 L 888.99 321.00 L 876.00 320.77 L 868.00 324.85 L 864.00 332.02 L 866.01 339.00 L 872.00 343.97 L 891.00 348.43 L 906.00 355.42 L 910.58 360.00 L 914.57 368.00 L 914.57 378.00 L 909.83 389.00 L 901.00 396.56 L 892.00 399.57 L 886.00 400.01 Z M 1468.00 400.01 L 1463.00 400.73 L 1447.00 397.57 L 1436.00 390.83 L 1429.00 383.80 L 1424.42 377.00 L 1421.43 370.00 L 1419.27 358.00 L 1421.43 339.00 L 1424.42 331.00 L 1430.00 323.20 L 1442.00 313.42 L 1456.00 308.27 L 1474.00 308.27 L 1479.00 309.43 L 1492.00 316.42 L 1497.73 323.00 L 1497.56 325.00 L 1494.00 328.85 L 1491.00 331.56 L 1489.00 331.73 L 1474.98 322.00 L 1470.00 320.77 L 1459.01 321.00 L 1447.00 326.01 L 1437.00 338.06 L 1433.77 350.00 L 1434.77 364.00 L 1438.01 372.00 L 1447.00 381.99 L 1459.01 387.00 L 1469.00 387.23 L 1479.99 383.00 L 1488.20 376.00 L 1491.00 375.27 L 1498.56 382.00 L 1496.85 386.00 L 1485.00 395.58 L 1468.00 400.01 Z M 1317.99 356.00 L 1324.00 353.97 L 1331.97 347.00 L 1334.23 338.00 L 1330.99 329.00 L 1326.99 325.00 L 1318.00 321.77 L 1294.00 322.03 L 1292.77 324.00 L 1293.00 355.61 L 1317.99 356.00 Z M 1165.99 364.00 L 1177.00 363.21 L 1177.93 362.00 L 1166.99 335.00 L 1163.00 328.37 L 1148.80 362.00 L 1150.00 363.22 L 1165.99 364.00 Z"/></g>
</svg>